<mxfile host="65bd71144e">
    <diagram id="Jm93HV-bxFnYq8IhcxDb" name="Page-1">
        <mxGraphModel dx="808" dy="859" grid="1" gridSize="10" guides="1" tooltips="1" connect="1" arrows="1" fold="1" page="1" pageScale="1" pageWidth="850" pageHeight="1100" math="0" shadow="0">
            <root>
                <mxCell id="0"/>
                <mxCell id="1" parent="0"/>
                <mxCell id="2" value="wechat-news&lt;div&gt;RSS&lt;/div&gt;" style="rounded=0;whiteSpace=wrap;html=1;" parent="1" vertex="1">
                    <mxGeometry x="90" y="290" width="120" height="60" as="geometry"/>
                </mxCell>
                <mxCell id="3" value="Podcasts" style="rounded=0;whiteSpace=wrap;html=1;" parent="1" vertex="1">
                    <mxGeometry x="90" y="380" width="120" height="60" as="geometry"/>
                </mxCell>
                <mxCell id="4" value="Sellside Pdfs" style="rounded=0;whiteSpace=wrap;html=1;" parent="1" vertex="1">
                    <mxGeometry x="90" y="470" width="120" height="60" as="geometry"/>
                </mxCell>
                <mxCell id="5" value="Email (CN/ENG)" style="rounded=0;whiteSpace=wrap;html=1;" vertex="1" parent="1">
                    <mxGeometry x="580" y="200" width="120" height="60" as="geometry"/>
                </mxCell>
                <mxCell id="6" value="Input" style="rounded=0;whiteSpace=wrap;html=1;fillColor=#99FF99;" vertex="1" parent="1">
                    <mxGeometry x="90" y="110" width="120" height="60" as="geometry"/>
                </mxCell>
                <mxCell id="7" value="Output" style="rounded=0;whiteSpace=wrap;html=1;fillColor=#99FF99;" vertex="1" parent="1">
                    <mxGeometry x="580" y="110" width="120" height="60" as="geometry"/>
                </mxCell>
                <mxCell id="8" value="News PDF (CN/ENG)" style="rounded=0;whiteSpace=wrap;html=1;" vertex="1" parent="1">
                    <mxGeometry x="580" y="290" width="120" height="60" as="geometry"/>
                </mxCell>
                <mxCell id="9" value="Podcast PDF (CN/ENG)" style="rounded=0;whiteSpace=wrap;html=1;" vertex="1" parent="1">
                    <mxGeometry x="580" y="380" width="120" height="60" as="geometry"/>
                </mxCell>
                <mxCell id="10" value="Podcast PDF&amp;nbsp;&lt;div&gt;(Pdf server)&lt;/div&gt;" style="rounded=0;whiteSpace=wrap;html=1;" vertex="1" parent="1">
                    <mxGeometry x="580" y="460" width="120" height="60" as="geometry"/>
                </mxCell>
            </root>
        </mxGraphModel>
    </diagram>
</mxfile>